<svg width="20" height="21" viewBox="0 0 20 21" fill="none" xmlns="http://www.w3.org/2000/svg">
<path d="M9.79664 0.714844C4.38662 0.714844 0 5.09951 0 10.5071C0 14.5158 2.41417 17.9606 5.86486 19.4775C5.83862 18.7956 5.86049 17.9737 6.03543 17.2305C6.22349 16.4349 7.295 11.8929 7.295 11.8929C7.295 11.8929 6.9801 11.2678 6.9801 10.3454C6.9801 8.89401 7.81982 7.80986 8.86946 7.80986C9.76165 7.80986 10.1903 8.47871 10.1903 9.2787C10.1903 10.1749 9.61732 11.5126 9.3243 12.7541C9.07938 13.7945 9.84475 14.6382 10.8725 14.6382C12.7269 14.6382 13.9777 12.2557 13.9777 9.43171C13.9777 7.28528 12.5301 5.68092 9.9016 5.68092C6.932 5.68092 5.07763 7.8973 5.07763 10.3716C5.07763 11.224 5.3313 11.8273 5.72491 12.2907C5.90422 12.5049 5.93046 12.5923 5.86486 12.8371C5.81675 13.0164 5.71179 13.4492 5.66368 13.624C5.59808 13.8732 5.3969 13.9606 5.17385 13.8688C3.80494 13.3093 3.16641 11.8142 3.16641 10.1268C3.16641 7.34648 5.51498 4.01099 10.1684 4.01099C13.9077 4.01099 16.37 6.71698 16.37 9.61969C16.37 13.4623 14.2314 16.33 11.0824 16.33C10.0241 16.33 9.03128 15.7573 8.69014 15.1103C8.69014 15.1103 8.12159 17.3661 7.99913 17.8032C7.79357 18.5595 7.38684 19.3114 7.01509 19.9016C7.91686 20.1675 8.85208 20.3029 9.79226 20.3037C15.2023 20.3037 19.5889 15.9191 19.5889 10.5115C19.5889 5.10388 15.2067 0.714844 9.79664 0.714844Z" fill="#274C5B"/>
</svg>
