<svg width="21" height="18" viewBox="0 0 21 18" fill="none" xmlns="http://www.w3.org/2000/svg">
<path d="M20.6602 2.67326C19.8852 3.01 19.0652 3.23185 18.2261 3.33181C19.1079 2.81546 19.7711 1.99516 20.0912 1.02475C19.2575 1.51224 18.3469 1.85429 17.3984 2.03624C16.9991 1.61767 16.5187 1.28469 15.9866 1.05753C15.4546 0.83037 14.8818 0.713782 14.3033 0.714851C11.9609 0.714851 10.0654 2.58287 10.0654 4.88562C10.0637 5.20593 10.1004 5.52528 10.1747 5.83685C8.49507 5.75811 6.85036 5.32964 5.34581 4.57884C3.84126 3.82805 2.50999 2.77147 1.43717 1.47669C1.0608 2.11119 0.861758 2.83512 0.86084 3.57284C0.86084 5.01905 1.61537 6.2974 2.75469 7.04633C2.07967 7.03031 1.41849 6.85165 0.827268 6.52552V6.57717C0.827268 8.60015 2.2907 10.2831 4.22759 10.6662C3.86336 10.7633 3.48803 10.8125 3.11108 10.8125C2.84361 10.813 2.57674 10.787 2.31437 10.735C2.85283 12.3921 4.41999 13.5973 6.27639 13.6318C4.76793 14.7943 2.91593 15.4226 1.01149 15.418C0.673443 15.4175 0.335713 15.3974 0 15.3577C1.9374 16.5949 4.18947 17.2492 6.48815 17.243C14.2943 17.243 18.5589 10.8857 18.5589 5.372C18.5589 5.19122 18.5541 5.01044 18.5455 4.83397C19.3733 4.24518 20.0893 3.51349 20.6602 2.67326Z" fill="#274C5B"/>
</svg>
